<svg xmlns="http://www.w3.org/2000/svg" xmlns:xlink="http://www.w3.org/1999/xlink" width="150" zoomAndPan="magnify" viewBox="0 0 112.5 112.499997" height="150" preserveAspectRatio="xMidYMid meet" version="1.0"><defs><clipPath id="d066f4b4f4"><path d="M 14.132812 0 L 98 0 L 98 112.003906 L 14.132812 112.003906 Z M 14.132812 0 " clip-rule="nonzero"/></clipPath></defs><g clip-path="url(#d066f4b4f4)"><path fill="#ffffff" d="M 95.664062 28.472656 C 93.777344 25.503906 90.789062 23.796875 87.472656 23.796875 C 87.082031 23.796875 86.683594 23.824219 86.289062 23.871094 C 84.78125 24.054688 83.347656 24.566406 82.0625 25.339844 C 82.1875 20.980469 81.691406 16.929688 80.570312 13.269531 C 80.292969 12.359375 79.992188 11.574219 79.65625 10.871094 C 77.851562 6.59375 74.675781 3.246094 70.707031 1.4375 C 68.636719 0.496094 66.441406 0 64.355469 0 C 62.308594 0 60.414062 0.464844 58.71875 1.378906 C 54.511719 3.644531 51.753906 8.191406 51.453125 13.300781 C 48.984375 10.457031 46.328125 8.054688 43.507812 6.132812 C 42.898438 5.714844 42.085938 5.1875 41.15625 4.738281 C 38.066406 3.027344 34.601562 2.121094 31.128906 2.121094 C 28.902344 2.121094 26.742188 2.496094 24.710938 3.230469 C 22.117188 4.171875 19.886719 5.628906 18.25 7.441406 C 16.394531 9.503906 15.261719 12.09375 14.886719 15.136719 C 14.167969 20.941406 16.929688 26.9375 22.089844 30.78125 C 23.234375 31.628906 24.445312 32.253906 25.511719 32.804688 C 25.824219 32.960938 26.132812 33.121094 26.445312 33.285156 C 28.210938 34.234375 29.804688 35.167969 31.3125 36.140625 C 33.375 37.46875 35.160156 38.792969 36.769531 40.183594 C 37.707031 40.996094 38.585938 41.828125 39.378906 42.664062 C 39.695312 42.996094 40.015625 43.324219 40.335938 43.65625 C 40.925781 44.265625 41.488281 44.84375 42.015625 45.433594 C 42.308594 45.761719 42.59375 46.101562 42.878906 46.4375 C 42.347656 46.394531 41.8125 46.367188 41.269531 46.367188 C 30.992188 46.367188 22.632812 54.75 22.632812 65.054688 C 22.632812 72.15625 26.601562 78.34375 32.433594 81.503906 C 32.058594 81.78125 31.683594 82.078125 31.304688 82.386719 C 28.832031 84.425781 26.730469 86.96875 25.050781 89.949219 C 23.378906 92.925781 22.332031 95.941406 21.9375 98.90625 C 21.875 99.40625 21.808594 100 21.820312 100.648438 C 21.730469 103.984375 22.972656 107.210938 25.238281 109.515625 C 27.128906 111.4375 29.539062 112.496094 32.03125 112.496094 C 32.691406 112.496094 33.351562 112.417969 33.996094 112.269531 C 37.308594 111.507812 40.03125 109.003906 41.277344 105.574219 C 41.9375 103.75 41.960938 101.996094 41.980469 100.449219 C 41.984375 99.925781 41.992188 99.433594 42.023438 98.980469 C 42.175781 96.714844 42.679688 94.449219 43.558594 92.054688 C 43.960938 90.964844 44.515625 89.832031 45.003906 88.835938 L 45.207031 88.429688 C 45.339844 88.15625 45.480469 87.867188 45.625 87.570312 L 49.125 89.492188 L 53.003906 96.609375 C 53.730469 97.941406 55.140625 98.769531 56.675781 98.769531 C 58.210938 98.769531 59.621094 97.941406 60.347656 96.609375 L 64.226562 89.492188 L 68.378906 87.214844 C 69.152344 89.0625 69.640625 90.871094 69.839844 92.601562 C 69.9375 93.464844 69.992188 94.363281 70.003906 95.347656 C 70.007812 95.53125 70.003906 95.714844 70 95.898438 C 69.988281 96.46875 69.980469 97.117188 70.070312 97.839844 C 70.476562 101.089844 72.292969 103.921875 74.933594 105.414062 C 76.261719 106.160156 77.746094 106.558594 79.222656 106.558594 C 80.824219 106.558594 82.398438 106.09375 83.773438 105.214844 C 86.195312 103.667969 87.960938 101.003906 88.5 98.089844 C 88.644531 97.316406 88.710938 96.539062 88.707031 95.769531 C 88.746094 94.492188 88.515625 93.265625 88.285156 92.234375 C 87.972656 90.863281 87.507812 89.46875 86.855469 87.976562 C 85.699219 85.324219 84.097656 82.910156 82.09375 80.804688 C 80.992188 79.644531 79.789062 78.625 78.523438 77.773438 C 81.863281 74.960938 83.992188 70.746094 83.992188 66.039062 C 83.992188 62.101562 82.5 58.507812 80.058594 55.792969 C 80.539062 55.617188 81.023438 55.433594 81.515625 55.222656 C 84.75 53.847656 87.742188 51.828125 90.402344 49.222656 C 93.050781 46.632812 95.023438 43.859375 96.277344 40.972656 C 96.503906 40.449219 96.734375 39.882812 96.910156 39.25 C 98.097656 35.59375 97.632812 31.570312 95.664062 28.472656 Z M 95.664062 28.472656 " fill-opacity="1" fill-rule="nonzero"/></g><path fill="#ffffff" d="M 56.550781 65.054688 C 56.550781 66.0625 56.453125 67.058594 56.257812 68.046875 C 56.0625 69.03125 55.769531 69.992188 55.386719 70.921875 C 55.003906 71.851562 54.53125 72.734375 53.976562 73.570312 C 53.417969 74.40625 52.785156 75.179688 52.074219 75.890625 C 51.367188 76.601562 50.59375 77.238281 49.757812 77.796875 C 48.925781 78.355469 48.042969 78.828125 47.117188 79.210938 C 46.191406 79.597656 45.234375 79.886719 44.25 80.085938 C 43.265625 80.28125 42.273438 80.378906 41.269531 80.378906 C 40.265625 80.378906 39.273438 80.28125 38.289062 80.085938 C 37.304688 79.886719 36.351562 79.597656 35.421875 79.210938 C 34.496094 78.828125 33.617188 78.355469 32.78125 77.796875 C 31.945312 77.238281 31.175781 76.601562 30.464844 75.890625 C 29.757812 75.179688 29.121094 74.40625 28.566406 73.570312 C 28.007812 72.734375 27.539062 71.851562 27.152344 70.921875 C 26.769531 69.992188 26.480469 69.03125 26.285156 68.046875 C 26.089844 67.058594 25.992188 66.0625 25.992188 65.054688 C 25.992188 64.050781 26.089844 63.054688 26.285156 62.066406 C 26.480469 61.082031 26.769531 60.121094 27.152344 59.191406 C 27.539062 58.261719 28.007812 57.378906 28.566406 56.542969 C 29.121094 55.707031 29.757812 54.933594 30.464844 54.222656 C 31.175781 53.511719 31.945312 52.875 32.78125 52.316406 C 33.617188 51.757812 34.496094 51.285156 35.421875 50.898438 C 36.351562 50.515625 37.304688 50.226562 38.289062 50.027344 C 39.273438 49.832031 40.265625 49.734375 41.269531 49.734375 C 42.273438 49.734375 43.265625 49.832031 44.25 50.027344 C 45.234375 50.226562 46.191406 50.515625 47.117188 50.898438 C 48.042969 51.285156 48.925781 51.757812 49.757812 52.316406 C 50.59375 52.875 51.367188 53.511719 52.074219 54.222656 C 52.785156 54.933594 53.417969 55.707031 53.976562 56.542969 C 54.53125 57.378906 55.003906 58.261719 55.386719 59.191406 C 55.769531 60.121094 56.0625 61.082031 56.257812 62.066406 C 56.453125 63.054688 56.550781 64.050781 56.550781 65.054688 Z M 56.550781 65.054688 " fill-opacity="1" fill-rule="nonzero"/><path fill="#1d1d1b" d="M 55.707031 65.054688 C 55.707031 65.464844 55.691406 65.867188 55.660156 66.273438 C 55.644531 66.46875 55.628906 66.660156 55.605469 66.855469 C 55.601562 66.890625 55.597656 66.929688 55.59375 66.96875 C 55.578125 67.105469 55.609375 66.839844 55.59375 66.976562 C 55.578125 67.089844 55.558594 67.207031 55.539062 67.316406 C 55.417969 68.082031 55.234375 68.835938 54.996094 69.566406 C 54.878906 69.9375 54.742188 70.300781 54.597656 70.660156 C 54.59375 70.667969 54.546875 70.78125 54.582031 70.695312 C 54.621094 70.601562 54.558594 70.746094 54.550781 70.765625 C 54.515625 70.847656 54.480469 70.925781 54.445312 71.003906 C 54.363281 71.183594 54.277344 71.367188 54.1875 71.539062 C 53.84375 72.222656 53.445312 72.878906 53.007812 73.5 C 52.910156 73.640625 52.804688 73.78125 52.703125 73.917969 C 52.804688 73.78125 52.628906 74.007812 52.609375 74.035156 C 52.546875 74.113281 52.484375 74.1875 52.421875 74.261719 C 52.179688 74.554688 51.925781 74.835938 51.664062 75.113281 C 51.40625 75.375 51.144531 75.632812 50.871094 75.875 C 50.734375 76 50.59375 76.121094 50.453125 76.238281 C 50.378906 76.300781 50.304688 76.363281 50.226562 76.421875 C 50.1875 76.453125 49.976562 76.617188 50.109375 76.519531 C 49.511719 76.972656 48.886719 77.382812 48.230469 77.75 C 47.894531 77.933594 47.554688 78.105469 47.203125 78.265625 C 47.125 78.300781 47.046875 78.339844 46.96875 78.371094 C 46.945312 78.382812 46.804688 78.445312 46.898438 78.402344 C 46.992188 78.363281 46.847656 78.421875 46.824219 78.433594 C 46.652344 78.503906 46.476562 78.570312 46.304688 78.636719 C 45.570312 78.902344 44.816406 79.117188 44.054688 79.269531 C 43.867188 79.308594 43.679688 79.339844 43.492188 79.371094 C 43.402344 79.382812 43.3125 79.398438 43.226562 79.410156 C 43.195312 79.414062 43.0625 79.433594 43.21875 79.410156 C 43.167969 79.417969 43.117188 79.425781 43.066406 79.429688 C 42.667969 79.476562 42.265625 79.507812 41.863281 79.523438 C 41.070312 79.550781 40.273438 79.523438 39.480469 79.429688 C 39.429688 79.421875 39.378906 79.414062 39.328125 79.410156 C 39.488281 79.433594 39.355469 79.414062 39.324219 79.410156 C 39.234375 79.398438 39.144531 79.382812 39.058594 79.371094 C 38.855469 79.339844 38.65625 79.300781 38.457031 79.261719 C 38.074219 79.183594 37.691406 79.089844 37.316406 78.984375 C 36.953125 78.878906 36.597656 78.765625 36.246094 78.636719 C 36.070312 78.570312 35.894531 78.503906 35.722656 78.433594 C 35.699219 78.421875 35.554688 78.363281 35.648438 78.402344 C 35.738281 78.441406 35.621094 78.390625 35.613281 78.386719 C 35.511719 78.34375 35.410156 78.296875 35.308594 78.25 C 34.625 77.933594 33.96875 77.570312 33.339844 77.15625 C 33.183594 77.054688 33.035156 76.953125 32.882812 76.847656 C 32.8125 76.796875 32.742188 76.746094 32.675781 76.695312 C 32.632812 76.667969 32.597656 76.636719 32.554688 76.609375 C 32.539062 76.597656 32.378906 76.476562 32.464844 76.539062 C 32.527344 76.585938 32.351562 76.449219 32.320312 76.421875 C 32.242188 76.363281 32.167969 76.300781 32.09375 76.238281 C 31.941406 76.109375 31.796875 75.984375 31.648438 75.851562 C 31.09375 75.351562 30.578125 74.808594 30.101562 74.238281 C 30.046875 74.171875 29.992188 74.105469 29.9375 74.035156 C 29.917969 74.007812 29.742188 73.78125 29.84375 73.917969 C 29.726562 73.757812 29.609375 73.601562 29.496094 73.441406 C 29.285156 73.140625 29.085938 72.832031 28.894531 72.515625 C 28.695312 72.1875 28.511719 71.851562 28.34375 71.507812 C 28.257812 71.34375 28.179688 71.175781 28.101562 71.007812 C 28.066406 70.929688 28.03125 70.851562 27.996094 70.769531 C 27.988281 70.75 27.925781 70.605469 27.964844 70.699219 C 28.003906 70.796875 27.921875 70.589844 27.921875 70.59375 C 27.636719 69.886719 27.402344 69.152344 27.222656 68.410156 C 27.132812 68.023438 27.054688 67.636719 26.996094 67.246094 C 26.980469 67.160156 26.96875 67.070312 26.957031 66.980469 C 26.941406 66.882812 26.957031 67 26.960938 67.011719 C 26.953125 66.960938 26.945312 66.910156 26.941406 66.859375 C 26.917969 66.652344 26.898438 66.445312 26.882812 66.238281 C 26.820312 65.429688 26.820312 64.617188 26.886719 63.804688 C 26.902344 63.625 26.917969 63.441406 26.941406 63.261719 C 26.949219 63.210938 26.957031 63.160156 26.960938 63.109375 C 26.957031 63.144531 26.9375 63.273438 26.960938 63.105469 C 26.976562 63.003906 26.988281 62.902344 27.007812 62.800781 C 27.070312 62.410156 27.148438 62.023438 27.242188 61.640625 C 27.425781 60.894531 27.664062 60.167969 27.953125 59.457031 C 27.960938 59.429688 28.015625 59.308594 27.953125 59.453125 C 27.972656 59.410156 27.992188 59.363281 28.011719 59.316406 C 28.046875 59.238281 28.082031 59.15625 28.121094 59.078125 C 28.203125 58.898438 28.289062 58.71875 28.378906 58.542969 C 28.546875 58.210938 28.726562 57.886719 28.917969 57.570312 C 29.113281 57.246094 29.324219 56.925781 29.542969 56.613281 C 29.597656 56.535156 29.65625 56.453125 29.714844 56.375 C 29.738281 56.34375 29.871094 56.167969 29.828125 56.226562 C 29.769531 56.300781 29.84375 56.203125 29.851562 56.195312 C 29.882812 56.15625 29.914062 56.117188 29.945312 56.078125 C 30.011719 55.992188 30.082031 55.90625 30.152344 55.824219 C 30.628906 55.25 31.152344 54.710938 31.707031 54.214844 C 31.84375 54.09375 31.984375 53.972656 32.125 53.855469 C 32.191406 53.800781 32.257812 53.746094 32.324219 53.691406 C 32.363281 53.660156 32.402344 53.632812 32.4375 53.597656 C 32.558594 53.503906 32.394531 53.632812 32.472656 53.574219 C 32.765625 53.351562 33.066406 53.136719 33.375 52.9375 C 34.003906 52.523438 34.664062 52.160156 35.347656 51.847656 C 35.4375 51.804688 35.527344 51.765625 35.617188 51.726562 C 35.644531 51.710938 35.765625 51.664062 35.621094 51.722656 C 35.65625 51.710938 35.691406 51.695312 35.726562 51.679688 C 35.910156 51.605469 36.097656 51.535156 36.28125 51.464844 C 36.648438 51.332031 37.015625 51.210938 37.390625 51.109375 C 37.757812 51.007812 38.125 50.917969 38.496094 50.84375 C 38.683594 50.804688 38.871094 50.769531 39.058594 50.742188 C 39.148438 50.730469 39.238281 50.714844 39.324219 50.703125 C 39.492188 50.675781 39.367188 50.695312 39.332031 50.703125 C 39.394531 50.695312 39.460938 50.6875 39.523438 50.679688 C 40.316406 50.589844 41.109375 50.558594 41.90625 50.589844 C 42.308594 50.605469 42.710938 50.640625 43.109375 50.6875 C 43.132812 50.691406 43.292969 50.710938 43.1875 50.695312 C 43.089844 50.6875 43.214844 50.703125 43.226562 50.703125 C 43.328125 50.71875 43.429688 50.734375 43.53125 50.75 C 43.730469 50.785156 43.929688 50.820312 44.132812 50.859375 C 44.882812 51.015625 45.621094 51.226562 46.339844 51.492188 C 46.515625 51.558594 46.6875 51.628906 46.863281 51.699219 C 46.890625 51.710938 47.011719 51.761719 46.867188 51.699219 C 46.898438 51.714844 46.933594 51.730469 46.96875 51.746094 C 47.070312 51.789062 47.171875 51.835938 47.273438 51.882812 C 47.609375 52.039062 47.941406 52.207031 48.265625 52.390625 C 48.597656 52.574219 48.921875 52.773438 49.242188 52.984375 C 49.394531 53.085938 49.546875 53.1875 49.699219 53.296875 C 49.765625 53.34375 49.835938 53.398438 49.90625 53.445312 C 49.941406 53.472656 50.1875 53.660156 50.058594 53.558594 C 50.648438 54.019531 51.203125 54.519531 51.71875 55.058594 C 51.980469 55.335938 52.234375 55.617188 52.476562 55.914062 C 52.53125 55.976562 52.582031 56.046875 52.636719 56.113281 C 52.667969 56.148438 52.800781 56.328125 52.707031 56.203125 C 52.828125 56.359375 52.945312 56.519531 53.058594 56.675781 C 53.496094 57.304688 53.886719 57.960938 54.226562 58.644531 C 54.585938 59.363281 54.765625 59.800781 55.027344 60.621094 C 55.261719 61.359375 55.441406 62.113281 55.5625 62.875 C 55.578125 62.976562 55.59375 63.078125 55.605469 63.179688 C 55.582031 63.019531 55.613281 63.253906 55.617188 63.300781 C 55.640625 63.496094 55.660156 63.6875 55.675781 63.882812 C 55.695312 64.269531 55.707031 64.664062 55.707031 65.054688 C 55.707031 65.496094 56.09375 65.917969 56.546875 65.898438 C 57 65.878906 57.390625 65.527344 57.386719 65.054688 C 57.378906 61.738281 56.359375 58.433594 54.433594 55.734375 C 52.515625 53.042969 49.84375 50.988281 46.746094 49.851562 C 43.605469 48.703125 40.078125 48.589844 36.863281 49.503906 C 33.765625 50.386719 30.933594 52.226562 28.882812 54.714844 C 26.746094 57.308594 25.457031 60.484375 25.195312 63.839844 C 24.9375 67.167969 25.746094 70.574219 27.476562 73.425781 C 29.140625 76.171875 31.632812 78.425781 34.558594 79.75 C 37.679688 81.167969 41.171875 81.566406 44.535156 80.886719 C 47.703125 80.242188 50.664062 78.589844 52.898438 76.246094 C 55.152344 73.890625 56.691406 70.84375 57.183594 67.613281 C 57.316406 66.765625 57.390625 65.914062 57.390625 65.054688 C 57.390625 64.613281 57.003906 64.191406 56.550781 64.210938 C 56.09375 64.234375 55.710938 64.585938 55.707031 65.054688 Z M 55.707031 65.054688 " fill-opacity="1" fill-rule="nonzero"/><path fill="#000000" d="M 46.488281 66.414062 C 46.488281 66.902344 46.394531 67.375 46.210938 67.824219 C 46.023438 68.277344 45.757812 68.675781 45.414062 69.019531 C 45.070312 69.367188 44.671875 69.632812 44.222656 69.820312 C 43.773438 70.003906 43.304688 70.097656 42.816406 70.097656 C 42.328125 70.097656 41.859375 70.003906 41.410156 69.820312 C 40.960938 69.632812 40.5625 69.367188 40.21875 69.019531 C 39.875 68.675781 39.609375 68.277344 39.421875 67.824219 C 39.238281 67.375 39.144531 66.902344 39.144531 66.414062 C 39.144531 65.925781 39.238281 65.457031 39.421875 65.007812 C 39.609375 64.554688 39.875 64.15625 40.21875 63.8125 C 40.5625 63.464844 40.960938 63.199219 41.410156 63.011719 C 41.859375 62.824219 42.328125 62.730469 42.816406 62.730469 C 43.304688 62.730469 43.773438 62.824219 44.222656 63.011719 C 44.671875 63.199219 45.070312 63.464844 45.414062 63.8125 C 45.757812 64.15625 46.023438 64.554688 46.210938 65.007812 C 46.394531 65.457031 46.488281 65.925781 46.488281 66.414062 Z M 46.488281 66.414062 " fill-opacity="1" fill-rule="nonzero"/><path fill="#ffffff" d="M 80.640625 66.042969 C 80.640625 66.828125 80.5625 67.605469 80.410156 68.375 C 80.257812 69.144531 80.03125 69.890625 79.730469 70.613281 C 79.433594 71.339844 79.066406 72.027344 78.628906 72.679688 C 78.195312 73.332031 77.703125 73.9375 77.148438 74.492188 C 76.59375 75.046875 75.992188 75.542969 75.34375 75.976562 C 74.691406 76.414062 74.003906 76.78125 73.28125 77.082031 C 72.558594 77.382812 71.816406 77.609375 71.046875 77.761719 C 70.28125 77.914062 69.503906 77.992188 68.722656 77.992188 C 67.941406 77.992188 67.164062 77.914062 66.398438 77.761719 C 65.628906 77.609375 64.886719 77.382812 64.164062 77.082031 C 63.4375 76.78125 62.753906 76.414062 62.101562 75.976562 C 61.453125 75.542969 60.847656 75.046875 60.296875 74.492188 C 59.742188 73.9375 59.25 73.332031 58.8125 72.679688 C 58.378906 72.027344 58.011719 71.339844 57.714844 70.613281 C 57.414062 69.890625 57.1875 69.144531 57.035156 68.375 C 56.882812 67.605469 56.804688 66.828125 56.804688 66.042969 C 56.804688 65.257812 56.882812 64.480469 57.035156 63.710938 C 57.1875 62.941406 57.414062 62.195312 57.714844 61.46875 C 58.011719 60.742188 58.378906 60.054688 58.8125 59.402344 C 59.25 58.75 59.742188 58.148438 60.296875 57.59375 C 60.847656 57.039062 61.453125 56.542969 62.101562 56.105469 C 62.753906 55.671875 63.4375 55.300781 64.164062 55 C 64.886719 54.703125 65.628906 54.476562 66.398438 54.320312 C 67.164062 54.167969 67.941406 54.09375 68.722656 54.09375 C 69.503906 54.09375 70.28125 54.167969 71.046875 54.320312 C 71.816406 54.476562 72.558594 54.703125 73.28125 55 C 74.003906 55.300781 74.691406 55.671875 75.34375 56.105469 C 75.992188 56.542969 76.59375 57.039062 77.148438 57.59375 C 77.703125 58.148438 78.195312 58.75 78.628906 59.402344 C 79.066406 60.054688 79.433594 60.742188 79.730469 61.46875 C 80.03125 62.195312 80.257812 62.941406 80.410156 63.710938 C 80.5625 64.480469 80.640625 65.257812 80.640625 66.042969 Z M 80.640625 66.042969 " fill-opacity="1" fill-rule="nonzero"/><path fill="#1d1d1b" d="M 79.796875 66.042969 C 79.796875 66.355469 79.785156 66.671875 79.761719 66.988281 C 79.75 67.128906 79.738281 67.269531 79.722656 67.414062 C 79.714844 67.480469 79.707031 67.542969 79.699219 67.609375 C 79.722656 67.417969 79.679688 67.734375 79.671875 67.765625 C 79.574219 68.367188 79.429688 68.960938 79.242188 69.539062 C 79.15625 69.800781 79.058594 70.058594 78.957031 70.316406 C 78.867188 70.542969 79.027344 70.164062 78.925781 70.390625 C 78.894531 70.457031 78.867188 70.527344 78.835938 70.59375 C 78.761719 70.75 78.6875 70.910156 78.609375 71.0625 C 78.351562 71.570312 78.054688 72.054688 77.726562 72.519531 C 77.640625 72.640625 77.554688 72.757812 77.464844 72.878906 C 77.578125 72.730469 77.425781 72.921875 77.414062 72.9375 C 77.367188 72.996094 77.320312 73.054688 77.273438 73.109375 C 77.085938 73.335938 76.886719 73.554688 76.683594 73.765625 C 76.496094 73.960938 76.300781 74.148438 76.101562 74.328125 C 75.992188 74.429688 75.882812 74.523438 75.769531 74.617188 C 75.714844 74.667969 75.65625 74.714844 75.597656 74.757812 C 75.5625 74.789062 75.523438 74.820312 75.484375 74.851562 C 75.558594 74.792969 75.558594 74.796875 75.480469 74.855469 C 75.023438 75.195312 74.554688 75.507812 74.058594 75.78125 C 73.796875 75.925781 73.53125 76.0625 73.265625 76.183594 C 73.21875 76.207031 72.894531 76.34375 73.054688 76.28125 C 72.894531 76.347656 72.730469 76.410156 72.566406 76.46875 C 72 76.675781 71.414062 76.835938 70.816406 76.957031 C 70.679688 76.984375 70.542969 77.007812 70.402344 77.03125 C 70.339844 77.042969 70.277344 77.050781 70.210938 77.058594 C 70.40625 77.03125 70.152344 77.066406 70.128906 77.070312 C 69.804688 77.109375 69.484375 77.132812 69.15625 77.144531 C 68.542969 77.164062 67.929688 77.140625 67.316406 77.070312 C 67.296875 77.066406 67.042969 77.03125 67.234375 77.058594 C 67.160156 77.050781 67.082031 77.039062 67.007812 77.023438 C 66.855469 77 66.707031 76.972656 66.554688 76.941406 C 66.257812 76.878906 65.960938 76.808594 65.671875 76.726562 C 65.40625 76.648438 65.144531 76.5625 64.882812 76.46875 C 64.742188 76.417969 64.601562 76.363281 64.464844 76.304688 C 64.234375 76.214844 64.613281 76.375 64.390625 76.273438 C 64.300781 76.234375 64.207031 76.195312 64.117188 76.152344 C 63.605469 75.910156 63.105469 75.632812 62.628906 75.320312 C 62.382812 75.160156 62.144531 74.988281 61.910156 74.808594 C 62.042969 74.910156 61.777344 74.699219 61.734375 74.664062 C 61.601562 74.554688 61.472656 74.441406 61.34375 74.328125 C 60.90625 73.933594 60.5 73.503906 60.125 73.050781 C 60.09375 73.011719 59.878906 72.742188 59.984375 72.875 C 59.894531 72.757812 59.804688 72.640625 59.71875 72.515625 C 59.550781 72.277344 59.386719 72.027344 59.234375 71.773438 C 59.082031 71.519531 58.941406 71.257812 58.804688 70.996094 C 58.738281 70.863281 58.671875 70.726562 58.613281 70.589844 C 58.59375 70.546875 58.570312 70.5 58.550781 70.457031 C 58.53125 70.410156 58.511719 70.363281 58.492188 70.320312 C 58.527344 70.40625 58.527344 70.402344 58.488281 70.3125 C 58.269531 69.75 58.078125 69.179688 57.9375 68.589844 C 57.875 68.316406 57.820312 68.039062 57.773438 67.761719 C 57.757812 67.6875 57.75 67.609375 57.738281 67.535156 C 57.765625 67.726562 57.730469 67.472656 57.726562 67.449219 C 57.707031 67.269531 57.691406 67.089844 57.675781 66.910156 C 57.632812 66.304688 57.636719 65.699219 57.683594 65.097656 C 57.695312 64.941406 57.710938 64.785156 57.726562 64.632812 C 57.730469 64.609375 57.765625 64.355469 57.738281 64.546875 C 57.75 64.472656 57.757812 64.394531 57.773438 64.320312 C 57.824219 64.015625 57.882812 63.714844 57.953125 63.417969 C 58.097656 62.832031 58.285156 62.257812 58.515625 61.699219 C 58.449219 61.855469 58.585938 61.539062 58.609375 61.492188 C 58.671875 61.355469 58.734375 61.21875 58.804688 61.085938 C 58.9375 60.820312 59.078125 60.5625 59.234375 60.308594 C 59.851562 59.277344 60.449219 58.550781 61.398438 57.707031 C 61.507812 57.605469 61.621094 57.511719 61.734375 57.417969 C 61.769531 57.386719 61.808594 57.355469 61.847656 57.324219 C 61.863281 57.3125 62.054688 57.160156 61.90625 57.273438 C 62.160156 57.078125 62.421875 56.894531 62.691406 56.71875 C 63.167969 56.410156 63.667969 56.136719 64.183594 55.898438 C 64.25 55.867188 64.320312 55.839844 64.386719 55.808594 C 64.613281 55.707031 64.234375 55.867188 64.460938 55.773438 C 64.601562 55.722656 64.738281 55.664062 64.882812 55.613281 C 65.164062 55.507812 65.449219 55.417969 65.742188 55.335938 C 66.007812 55.261719 66.277344 55.195312 66.550781 55.140625 C 66.703125 55.109375 66.851562 55.082031 67.003906 55.058594 C 67.078125 55.042969 67.15625 55.03125 67.234375 55.023438 C 67.042969 55.050781 67.359375 55.003906 67.390625 55.003906 C 67.992188 54.9375 68.59375 54.914062 69.195312 54.9375 C 69.503906 54.949219 69.816406 54.972656 70.128906 55.011719 C 70.148438 55.011719 70.402344 55.046875 70.210938 55.019531 C 70.261719 55.027344 70.3125 55.035156 70.363281 55.042969 C 70.539062 55.070312 70.714844 55.101562 70.890625 55.136719 C 71.480469 55.257812 72.066406 55.425781 72.632812 55.632812 C 72.761719 55.679688 72.890625 55.734375 73.015625 55.785156 C 73.152344 55.839844 72.835938 55.703125 73.058594 55.800781 C 73.125 55.832031 73.195312 55.863281 73.261719 55.894531 C 73.542969 56.023438 73.816406 56.164062 74.089844 56.316406 C 74.59375 56.597656 75.078125 56.914062 75.539062 57.269531 C 75.394531 57.15625 75.582031 57.308594 75.597656 57.320312 C 75.65625 57.367188 75.714844 57.414062 75.769531 57.460938 C 75.882812 57.554688 75.996094 57.652344 76.101562 57.75 C 76.320312 57.949219 76.53125 58.152344 76.734375 58.367188 C 76.921875 58.5625 77.101562 58.761719 77.273438 58.96875 C 77.320312 59.027344 77.367188 59.082031 77.414062 59.140625 C 77.425781 59.15625 77.578125 59.351562 77.464844 59.203125 C 77.570312 59.339844 77.671875 59.480469 77.769531 59.617188 C 78.09375 60.085938 78.386719 60.570312 78.640625 61.082031 C 78.710938 61.214844 78.773438 61.347656 78.835938 61.484375 C 78.867188 61.550781 78.894531 61.621094 78.925781 61.6875 C 79.027344 61.914062 78.867188 61.53125 78.957031 61.761719 C 79.066406 62.042969 79.171875 62.324219 79.265625 62.609375 C 79.453125 63.191406 79.589844 63.789062 79.683594 64.386719 C 79.6875 64.410156 79.726562 64.664062 79.699219 64.46875 C 79.707031 64.519531 79.710938 64.574219 79.714844 64.621094 C 79.734375 64.777344 79.75 64.933594 79.761719 65.089844 C 79.785156 65.410156 79.796875 65.726562 79.796875 66.042969 C 79.800781 66.484375 80.183594 66.902344 80.636719 66.882812 C 81.089844 66.863281 81.476562 66.515625 81.476562 66.042969 C 81.46875 63.414062 80.664062 60.796875 79.132812 58.65625 C 77.597656 56.515625 75.476562 54.894531 73.007812 53.992188 C 68.039062 52.1875 62.226562 53.792969 58.886719 57.898438 C 57.214844 59.957031 56.210938 62.449219 56.003906 65.097656 C 55.796875 67.730469 56.445312 70.433594 57.824219 72.6875 C 59.136719 74.847656 61.101562 76.625 63.40625 77.664062 C 65.894531 78.789062 68.660156 79.109375 71.339844 78.5625 C 76.425781 77.523438 80.539062 73.210938 81.3125 68.058594 C 81.414062 67.390625 81.476562 66.71875 81.476562 66.039062 C 81.480469 65.597656 81.089844 65.179688 80.640625 65.199219 C 80.179688 65.222656 79.800781 65.570312 79.796875 66.042969 Z M 79.796875 66.042969 " fill-opacity="1" fill-rule="nonzero"/><path fill="#f5c931" d="M 69.289062 81.925781 L 61.136719 86.394531 L 56.679688 94.570312 L 52.21875 86.394531 L 44.066406 81.925781 L 52.21875 77.453125 L 56.679688 69.28125 L 61.136719 77.453125 Z M 69.289062 81.925781 " fill-opacity="1" fill-rule="nonzero"/><path fill="#e9e661" d="M 65.5 79.921875 L 59.800781 83.046875 L 56.679688 88.765625 L 53.5625 83.046875 L 47.859375 79.921875 L 53.5625 76.792969 L 56.679688 71.074219 L 59.800781 76.792969 Z M 65.5 79.921875 " fill-opacity="1" fill-rule="nonzero"/><path fill="#1d1d1b" d="M 68.863281 81.199219 C 66.472656 82.507812 64.078125 83.824219 61.6875 85.136719 C 61.367188 85.3125 61.027344 85.46875 60.722656 85.664062 C 60.410156 85.863281 60.261719 86.246094 60.089844 86.5625 C 59.328125 87.960938 58.566406 89.355469 57.804688 90.75 C 57.1875 91.882812 56.570312 93.011719 55.953125 94.144531 C 56.4375 94.144531 56.921875 94.144531 57.402344 94.144531 C 56.09375 91.746094 54.785156 89.34375 53.476562 86.945312 C 53.300781 86.628906 53.144531 86.285156 52.949219 85.980469 C 52.75 85.667969 52.367188 85.519531 52.054688 85.34375 C 50.660156 84.582031 49.269531 83.816406 47.875 83.054688 C 46.746094 82.433594 45.621094 81.816406 44.492188 81.199219 C 44.492188 81.683594 44.492188 82.167969 44.492188 82.652344 C 46.882812 81.339844 49.277344 80.027344 51.671875 78.714844 C 51.988281 78.539062 52.328125 78.382812 52.636719 78.183594 C 52.945312 77.984375 53.09375 77.601562 53.265625 77.289062 C 54.027344 75.890625 54.792969 74.496094 55.550781 73.097656 C 56.167969 71.964844 56.785156 70.835938 57.402344 69.703125 C 56.921875 69.703125 56.4375 69.703125 55.953125 69.703125 C 57.261719 72.101562 58.570312 74.503906 59.878906 76.902344 C 60.054688 77.222656 60.210938 77.5625 60.40625 77.871094 C 60.605469 78.183594 60.988281 78.332031 61.300781 78.503906 C 62.695312 79.265625 64.085938 80.03125 65.480469 80.796875 C 66.609375 81.414062 67.734375 82.03125 68.863281 82.652344 C 69.8125 83.171875 70.660156 81.71875 69.710938 81.199219 C 67.335938 79.894531 64.960938 78.59375 62.582031 77.289062 C 62.242188 77.101562 61.902344 76.914062 61.558594 76.726562 C 61.660156 76.828125 61.761719 76.925781 61.859375 77.027344 C 60.5625 74.644531 59.261719 72.261719 57.960938 69.878906 C 57.773438 69.539062 57.589844 69.195312 57.402344 68.855469 C 57.105469 68.308594 56.25 68.308594 55.953125 68.855469 C 54.652344 71.238281 53.355469 73.621094 52.054688 76.003906 C 51.867188 76.34375 51.679688 76.6875 51.496094 77.027344 C 51.597656 76.925781 51.695312 76.828125 51.796875 76.726562 C 49.417969 78.03125 47.042969 79.332031 44.667969 80.636719 C 44.328125 80.824219 43.984375 81.011719 43.644531 81.199219 C 43.097656 81.496094 43.097656 82.351562 43.644531 82.652344 C 46.019531 83.953125 48.394531 85.257812 50.773438 86.5625 C 51.113281 86.75 51.453125 86.933594 51.796875 87.121094 C 51.695312 87.019531 51.597656 86.921875 51.496094 86.820312 C 52.792969 89.203125 54.09375 91.585938 55.394531 93.96875 C 55.582031 94.3125 55.765625 94.652344 55.953125 94.996094 C 56.25 95.542969 57.105469 95.542969 57.402344 94.996094 C 58.703125 92.613281 60 90.230469 61.300781 87.847656 C 61.488281 87.503906 61.675781 87.164062 61.859375 86.820312 C 61.761719 86.921875 61.660156 87.019531 61.558594 87.121094 C 63.9375 85.820312 66.3125 84.515625 68.6875 83.210938 C 69.03125 83.023438 69.371094 82.839844 69.710938 82.652344 C 70.660156 82.132812 69.8125 80.679688 68.863281 81.199219 Z M 68.863281 81.199219 " fill-opacity="1" fill-rule="nonzero"/><path fill="#c62047" d="M 39.195312 8.460938 C 41.074219 9.328125 44.847656 12.101562 48.351562 16.164062 C 51.902344 20.207031 55.191406 25.53125 57.199219 31.089844 C 59.253906 36.625 60.027344 42.390625 59.65625 46.898438 C 59.332031 51.390625 57.855469 54.625 56.507812 54.691406 C 53.476562 55.425781 49.472656 46.617188 43.019531 40.414062 C 36.972656 33.710938 28.480469 29.609375 25.859375 28.238281 C 20.832031 25.292969 17.527344 19.3125 19.597656 13.234375 C 21.605469 7.191406 31.15625 3.902344 39.195312 8.460938 Z M 39.195312 8.460938 " fill-opacity="1" fill-rule="nonzero"/><path fill="#ed2b50" d="M 44.667969 15.796875 C 46.128906 16.597656 49.007812 19.042969 51.601562 22.507812 C 54.234375 25.960938 56.582031 30.429688 57.886719 35.011719 C 59.230469 39.585938 59.53125 44.265625 58.980469 47.875 C 58.464844 51.46875 57.101562 53.988281 56.011719 53.96875 C 53.53125 54.386719 50.804688 47.074219 45.957031 41.71875 C 41.464844 35.988281 34.859375 32.207031 32.828125 30.960938 C 28.949219 28.308594 26.625 23.308594 28.625 18.535156 C 30.582031 13.785156 38.453125 11.671875 44.667969 15.796875 Z M 44.667969 15.796875 " fill-opacity="1" fill-rule="nonzero"/><path fill="#1d1d1b" d="M 38.773438 9.1875 C 40.375 9.9375 41.820312 11.066406 43.167969 12.203125 C 45.21875 13.941406 47.089844 15.890625 48.785156 17.976562 C 52.179688 22.136719 54.855469 26.925781 56.632812 31.992188 C 58.386719 36.980469 59.300781 42.394531 58.746094 47.675781 C 58.617188 48.898438 58.375 50.113281 58 51.28125 C 57.859375 51.722656 57.707031 52.132812 57.507812 52.535156 C 57.421875 52.714844 57.328125 52.886719 57.222656 53.058594 C 57.171875 53.140625 57.121094 53.222656 57.0625 53.300781 C 57.042969 53.335938 57.019531 53.367188 56.996094 53.398438 C 56.914062 53.507812 57.070312 53.3125 56.984375 53.410156 C 56.890625 53.523438 56.785156 53.625 56.679688 53.730469 C 56.578125 53.828125 56.792969 53.679688 56.632812 53.765625 C 56.597656 53.785156 56.394531 53.886719 56.515625 53.839844 C 56.644531 53.785156 56.472656 53.839844 56.449219 53.851562 C 56.378906 53.890625 56.546875 53.84375 56.550781 53.84375 C 56.464844 53.863281 56.371094 53.859375 56.28125 53.875 C 56.152344 53.898438 56.214844 53.878906 56.316406 53.878906 C 56.253906 53.878906 56.1875 53.886719 56.125 53.886719 C 56.089844 53.890625 55.890625 53.871094 56.046875 53.886719 C 56.191406 53.902344 56.019531 53.882812 55.988281 53.875 C 55.929688 53.859375 55.871094 53.84375 55.8125 53.828125 C 55.78125 53.816406 55.59375 53.746094 55.714844 53.796875 C 55.839844 53.84375 55.640625 53.761719 55.609375 53.746094 C 55.558594 53.71875 55.507812 53.691406 55.457031 53.664062 C 55.316406 53.585938 55.1875 53.5 55.0625 53.410156 C 55.039062 53.390625 54.886719 53.277344 54.960938 53.332031 C 55.027344 53.382812 54.863281 53.25 54.828125 53.222656 C 54.695312 53.109375 54.5625 52.988281 54.4375 52.871094 C 54.167969 52.613281 53.910156 52.335938 53.660156 52.058594 C 53.078125 51.40625 52.535156 50.722656 52.003906 50.027344 C 50.632812 48.234375 49.3125 46.402344 47.914062 44.632812 C 46.351562 42.660156 44.636719 40.859375 42.902344 39.042969 C 41.175781 37.242188 39.269531 35.625 37.273438 34.132812 C 34.195312 31.832031 30.882812 29.886719 27.476562 28.125 C 25.949219 27.332031 24.550781 26.445312 23.339844 25.199219 C 21.820312 23.636719 20.679688 21.71875 20.140625 19.601562 C 19.589844 17.445312 19.726562 15.125 20.550781 13.050781 C 21.136719 11.578125 22.367188 10.234375 23.738281 9.316406 C 27.175781 7.015625 31.65625 6.640625 35.566406 7.8125 C 36.6875 8.152344 37.753906 8.617188 38.773438 9.1875 C 39.71875 9.71875 40.5625 8.265625 39.621094 7.734375 C 35.476562 5.40625 30.363281 4.761719 25.855469 6.398438 C 23.9375 7.09375 22.121094 8.171875 20.746094 9.699219 C 19.265625 11.34375 18.488281 13.363281 18.21875 15.550781 C 17.609375 20.476562 20.21875 25.191406 24.09375 28.074219 C 25.3125 28.980469 26.695312 29.601562 28.027344 30.316406 C 29.765625 31.246094 31.472656 32.238281 33.128906 33.308594 C 35.167969 34.617188 37.128906 36.046875 38.964844 37.632812 C 39.957031 38.492188 40.910156 39.390625 41.8125 40.34375 C 42.714844 41.292969 43.644531 42.210938 44.519531 43.1875 C 46.15625 45.019531 47.636719 46.980469 49.101562 48.949219 C 50.300781 50.554688 51.46875 52.21875 52.855469 53.667969 C 53.722656 54.574219 54.917969 55.664062 56.273438 55.570312 C 56.386719 55.5625 56.5 55.546875 56.613281 55.527344 C 56.796875 55.492188 56.453125 55.546875 56.601562 55.523438 C 56.863281 55.484375 57.046875 55.445312 57.289062 55.328125 C 57.585938 55.179688 57.855469 54.957031 58.078125 54.710938 C 58.71875 54 59.125 53.109375 59.453125 52.21875 C 60.335938 49.808594 60.585938 47.140625 60.585938 44.589844 C 60.582031 41.8125 60.222656 39.027344 59.621094 36.320312 C 58.351562 30.628906 55.898438 25.195312 52.640625 20.371094 C 49.683594 15.984375 46.003906 11.90625 41.621094 8.914062 C 40.984375 8.476562 40.324219 8.0625 39.621094 7.734375 C 39.210938 7.542969 38.71875 7.617188 38.472656 8.035156 C 38.257812 8.402344 38.359375 8.996094 38.773438 9.1875 Z M 38.773438 9.1875 " fill-opacity="1" fill-rule="nonzero"/><path fill="#c62047" d="M 75.878906 12.699219 C 76.664062 14.28125 77.683594 18.15625 77.839844 22.742188 C 78.035156 27.335938 77.371094 32.644531 75.730469 37.414062 C 74.132812 42.199219 71.5625 46.445312 68.902344 49.242188 C 66.28125 52.050781 63.570312 53.40625 62.640625 52.726562 C 60.238281 51.582031 62.289062 43.574219 61.320312 35.980469 C 60.890625 28.277344 57.441406 20.980469 56.433594 18.660156 C 54.667969 14 55.675781 8.25 60.300781 5.320312 C 64.871094 2.390625 72.976562 5.34375 75.878906 12.699219 Z M 75.878906 12.699219 " fill-opacity="1" fill-rule="nonzero"/><path fill="#ed2b50" d="M 73.933594 18.761719 C 74.582031 20.066406 75.425781 23.265625 75.550781 27.046875 C 75.714844 30.839844 75.164062 35.222656 73.8125 39.15625 C 72.496094 43.105469 70.375 46.609375 68.179688 48.914062 C 66.019531 51.234375 63.78125 52.351562 63.011719 51.789062 C 61.027344 50.84375 62.722656 44.238281 61.925781 37.972656 C 61.570312 31.613281 58.722656 25.59375 57.890625 23.679688 C 56.4375 19.832031 57.265625 15.089844 61.082031 12.675781 C 64.851562 10.25 71.539062 12.691406 73.933594 18.761719 Z M 73.933594 18.761719 " fill-opacity="1" fill-rule="nonzero"/><path fill="#1d1d1b" d="M 75.152344 13.125 C 75.214844 13.246094 75.273438 13.371094 75.324219 13.496094 C 75.25 13.324219 75.351562 13.566406 75.355469 13.582031 C 75.382812 13.660156 75.414062 13.738281 75.445312 13.816406 C 75.578125 14.175781 75.695312 14.539062 75.800781 14.902344 C 76.0625 15.785156 76.269531 16.683594 76.4375 17.585938 C 76.863281 19.839844 77.039062 22.132812 77.035156 24.421875 C 77.023438 29.070312 76.203125 33.699219 74.617188 38.0625 C 73.160156 42.074219 70.964844 45.9375 67.972656 49 C 67.21875 49.769531 66.410156 50.488281 65.515625 51.082031 C 64.839844 51.53125 64.234375 51.851562 63.496094 52.035156 C 63.449219 52.046875 63.28125 52.0625 63.464844 52.042969 C 63.398438 52.050781 63.332031 52.050781 63.265625 52.054688 C 63.222656 52.058594 63.003906 52.082031 63.246094 52.066406 C 63.203125 52.070312 63.128906 52.042969 63.089844 52.027344 C 63.332031 52.128906 63.066406 52 63.015625 51.972656 C 62.96875 51.949219 62.925781 51.917969 62.878906 51.890625 C 63.082031 52.015625 62.890625 51.886719 62.84375 51.847656 C 62.683594 51.722656 62.867188 51.929688 62.765625 51.753906 C 62.703125 51.644531 62.640625 51.539062 62.59375 51.425781 C 62.679688 51.613281 62.535156 51.242188 62.515625 51.175781 C 62.472656 51.03125 62.441406 50.882812 62.410156 50.730469 C 62.347656 50.410156 62.335938 50.296875 62.308594 49.917969 C 62.277344 49.511719 62.261719 49.105469 62.257812 48.695312 C 62.246094 47.734375 62.28125 46.773438 62.3125 45.8125 C 62.394531 43.605469 62.488281 41.402344 62.410156 39.195312 C 62.367188 37.964844 62.21875 36.746094 62.132812 35.519531 C 62.046875 34.335938 61.894531 33.152344 61.695312 31.980469 C 61.324219 29.828125 60.769531 27.707031 60.089844 25.632812 C 59.523438 23.894531 58.863281 22.191406 58.148438 20.503906 C 57.910156 19.941406 57.664062 19.378906 57.417969 18.816406 C 57.367188 18.703125 57.316406 18.589844 57.269531 18.480469 C 57.246094 18.429688 57.222656 18.378906 57.199219 18.328125 C 57.136719 18.164062 57.246094 18.449219 57.183594 18.273438 C 57.027344 17.828125 56.886719 17.378906 56.777344 16.917969 C 55.996094 13.664062 56.625 9.996094 58.960938 7.507812 C 60 6.402344 61.238281 5.585938 62.59375 5.25 C 63.8125 4.945312 65.21875 4.992188 66.480469 5.289062 C 69.492188 5.992188 72.167969 7.984375 73.871094 10.621094 C 74.339844 11.347656 74.746094 12.117188 75.066406 12.917969 C 75.234375 13.339844 75.628906 13.636719 76.101562 13.507812 C 76.5 13.398438 76.855469 12.894531 76.683594 12.472656 C 75.304688 9.015625 72.730469 6.054688 69.320312 4.503906 C 66.507812 3.222656 63.117188 2.824219 60.304688 4.339844 C 56.875 6.1875 54.921875 9.953125 54.785156 13.777344 C 54.71875 15.613281 55.035156 17.539062 55.773438 19.226562 C 56.335938 20.523438 56.84375 21.664062 57.351562 22.964844 C 58.117188 24.933594 58.792969 26.941406 59.324219 28.988281 C 59.621094 30.121094 59.875 31.273438 60.074219 32.429688 C 60.285156 33.660156 60.375 34.894531 60.5 36.132812 C 60.757812 38.582031 60.796875 41.027344 60.71875 43.492188 C 60.65625 45.5 60.5 47.519531 60.605469 49.527344 C 60.671875 50.835938 60.820312 52.492188 61.988281 53.3125 C 63.269531 54.214844 64.875 53.460938 66.054688 52.734375 C 67.957031 51.558594 69.566406 49.90625 70.949219 48.15625 C 72.371094 46.347656 73.589844 44.390625 74.609375 42.324219 C 76.828125 37.828125 78.109375 32.914062 78.550781 27.925781 C 78.953125 23.394531 78.699219 18.628906 77.363281 14.261719 C 77.15625 13.582031 76.914062 12.914062 76.601562 12.277344 C 76.402344 11.867188 75.824219 11.757812 75.453125 11.972656 C 75.039062 12.21875 74.953125 12.714844 75.152344 13.125 Z M 75.152344 13.125 " fill-opacity="1" fill-rule="nonzero"/><path fill="#c62047" d="M 92.886719 38.066406 C 92.617188 39.15625 91.515625 41.445312 89.710938 43.722656 C 87.917969 46.023438 85.414062 48.308594 82.664062 49.933594 C 79.929688 51.582031 76.945312 52.570312 74.511719 52.820312 C 72.09375 53.09375 70.230469 52.628906 70.058594 51.917969 C 69.371094 50.371094 73.648438 47.355469 76.300781 43.289062 C 79.257812 39.394531 80.585938 34.449219 81.054688 32.910156 C 82.117188 29.933594 84.964844 27.570312 88.398438 28.070312 C 91.808594 28.542969 94.507812 33.316406 92.886719 38.066406 Z M 92.886719 38.066406 " fill-opacity="1" fill-rule="nonzero"/><path fill="#ed2b50" d="M 87.359375 41.988281 C 87.167969 42.753906 86.394531 44.359375 85.128906 45.957031 C 83.871094 47.570312 82.117188 49.175781 80.1875 50.316406 C 78.265625 51.472656 76.171875 52.167969 74.464844 52.34375 C 72.769531 52.535156 71.460938 52.210938 71.339844 51.710938 C 70.855469 50.625 73.855469 48.507812 75.71875 45.65625 C 77.792969 42.921875 78.726562 39.453125 79.054688 38.375 C 79.800781 36.285156 81.800781 34.628906 84.207031 34.976562 C 86.601562 35.308594 88.496094 38.65625 87.359375 41.988281 Z M 87.359375 41.988281 " fill-opacity="1" fill-rule="nonzero"/><path fill="#1d1d1b" d="M 92.078125 37.839844 C 91.839844 38.761719 91.410156 39.574219 90.925781 40.421875 C 90.230469 41.648438 89.414062 42.804688 88.5 43.878906 C 86.632812 46.082031 84.398438 47.957031 81.902344 49.40625 C 79.582031 50.75 76.957031 51.75 74.277344 52.003906 C 73.597656 52.070312 72.914062 52.082031 72.234375 52.019531 C 72.007812 51.996094 71.785156 51.957031 71.5625 51.90625 C 71.453125 51.878906 71.34375 51.847656 71.234375 51.8125 C 71.191406 51.800781 71.148438 51.785156 71.109375 51.769531 C 70.855469 51.679688 71.164062 51.804688 71.042969 51.742188 C 70.964844 51.703125 70.894531 51.664062 70.824219 51.617188 C 70.855469 51.640625 70.957031 51.683594 70.84375 51.628906 C 70.742188 51.585938 70.875 51.605469 70.835938 51.632812 C 70.847656 51.625 70.890625 51.757812 70.871094 51.695312 C 70.851562 51.640625 70.835938 51.570312 70.8125 51.515625 C 70.886719 51.683594 70.816406 51.636719 70.824219 51.519531 C 70.835938 51.328125 70.769531 51.640625 70.828125 51.507812 C 70.851562 51.449219 70.863281 51.375 70.882812 51.3125 C 70.933594 51.136719 70.828125 51.394531 70.921875 51.222656 C 71.355469 50.4375 71.828125 49.910156 72.445312 49.226562 C 73.242188 48.34375 74.058594 47.480469 74.832031 46.582031 C 76.574219 44.558594 78.152344 42.316406 79.332031 39.914062 C 80.273438 37.996094 81.007812 35.984375 81.625 33.9375 C 81.867188 33.136719 82.136719 32.394531 82.59375 31.679688 C 83.160156 30.804688 83.929688 30.058594 84.839844 29.546875 C 86.601562 28.550781 88.859375 28.566406 90.351562 29.914062 C 92.023438 31.417969 92.695312 33.773438 92.492188 35.972656 C 92.4375 36.613281 92.28125 37.234375 92.078125 37.839844 C 91.734375 38.871094 93.355469 39.3125 93.695312 38.289062 C 94.566406 35.664062 94.328125 32.636719 92.832031 30.28125 C 91.472656 28.144531 89.25 26.902344 86.695312 27.214844 C 84.140625 27.527344 81.953125 29.210938 80.769531 31.480469 C 80.347656 32.292969 80.113281 33.148438 79.84375 34.015625 C 79.523438 35.058594 79.164062 36.089844 78.757812 37.105469 C 77.722656 39.679688 76.292969 42.066406 74.585938 44.25 C 73.738281 45.335938 72.804688 46.347656 71.871094 47.359375 C 71.144531 48.152344 70.394531 48.945312 69.792969 49.835938 C 69.355469 50.480469 68.984375 51.285156 69.222656 52.074219 C 69.53125 53.085938 70.589844 53.457031 71.542969 53.609375 C 74.460938 54.082031 77.53125 53.265625 80.207031 52.125 C 83.132812 50.882812 85.792969 49.035156 88.066406 46.8125 C 90.160156 44.765625 92.035156 42.328125 93.207031 39.628906 C 93.394531 39.191406 93.578125 38.75 93.699219 38.289062 C 93.964844 37.238281 92.347656 36.792969 92.078125 37.839844 Z M 92.078125 37.839844 " fill-opacity="1" fill-rule="nonzero"/><path fill="#c62047" d="M 84.507812 95.734375 C 84.5625 94.832031 84.261719 92.808594 83.414062 90.628906 C 82.585938 88.433594 81.207031 86.074219 79.480469 84.171875 C 77.769531 82.25 75.714844 80.773438 73.90625 80 C 72.113281 79.210938 70.570312 79.125 70.269531 79.628906 C 69.375 80.652344 71.941406 83.992188 73.011719 87.75 C 74.355469 91.453125 74.199219 95.570312 74.191406 96.859375 C 74.300781 99.402344 75.925781 101.898438 78.683594 102.335938 C 81.414062 102.789062 84.625 99.765625 84.507812 95.734375 Z M 84.507812 95.734375 " fill-opacity="1" fill-rule="nonzero"/><path fill="#ed2b50" d="M 81.394531 92.148438 C 81.429688 91.460938 81.203125 89.925781 80.5625 88.273438 C 79.933594 86.605469 78.886719 84.816406 77.578125 83.371094 C 76.28125 81.910156 74.71875 80.792969 73.347656 80.203125 C 71.988281 79.605469 70.816406 79.539062 70.585938 79.921875 C 69.90625 80.699219 71.855469 83.234375 72.667969 86.085938 C 73.6875 88.894531 73.570312 92.019531 73.5625 93 C 73.644531 94.929688 74.878906 96.820312 76.972656 97.15625 C 79.042969 97.5 81.480469 95.207031 81.394531 92.148438 Z M 81.394531 92.148438 " fill-opacity="1" fill-rule="nonzero"/><path fill="#1d1d1b" d="M 85.347656 95.734375 C 85.390625 94.816406 85.210938 93.867188 85.011719 92.976562 C 84.730469 91.71875 84.296875 90.503906 83.785156 89.324219 C 82.789062 87.042969 81.382812 84.929688 79.667969 83.128906 C 78.007812 81.382812 76 79.914062 73.753906 79.03125 C 72.773438 78.648438 71.566406 78.296875 70.511719 78.546875 C 70.332031 78.589844 70.152344 78.660156 70 78.753906 C 69.910156 78.804688 69.816406 78.878906 69.742188 78.953125 C 69.707031 78.992188 69.675781 79.035156 69.640625 79.078125 C 69.417969 79.34375 69.78125 78.871094 69.582031 79.15625 C 69.363281 79.472656 69.25 79.804688 69.246094 80.191406 C 69.234375 80.988281 69.59375 81.769531 69.90625 82.480469 C 70.324219 83.445312 70.800781 84.378906 71.222656 85.339844 C 72.1875 87.511719 72.902344 89.855469 73.175781 92.222656 C 73.289062 93.25 73.347656 94.28125 73.359375 95.316406 C 73.367188 96.015625 73.3125 96.726562 73.402344 97.425781 C 73.65625 99.480469 74.746094 101.449219 76.578125 102.480469 C 78.296875 103.449219 80.300781 103.445312 81.96875 102.378906 C 83.660156 101.296875 84.835938 99.449219 85.199219 97.480469 C 85.308594 96.902344 85.363281 96.316406 85.347656 95.734375 C 85.328125 94.652344 83.648438 94.648438 83.671875 95.734375 C 83.703125 97.492188 83.070312 99.214844 81.765625 100.425781 C 81.257812 100.898438 80.632812 101.265625 80 101.433594 C 79.3125 101.617188 78.703125 101.554688 77.96875 101.28125 C 76.386719 100.691406 75.402344 99.152344 75.105469 97.539062 C 74.996094 96.945312 75.042969 96.335938 75.042969 95.734375 C 75.042969 94.890625 75.015625 94.046875 74.949219 93.207031 C 74.777344 90.96875 74.292969 88.832031 73.566406 86.707031 C 72.925781 84.839844 71.902344 83.070312 71.214844 81.277344 C 71.101562 80.988281 71.007812 80.695312 70.941406 80.394531 C 70.890625 80.167969 70.945312 80.5625 70.933594 80.347656 C 70.929688 80.296875 70.933594 80.242188 70.929688 80.191406 C 70.921875 80.148438 70.914062 79.96875 70.917969 80.21875 C 70.917969 80.152344 71.023438 79.9375 70.917969 80.175781 C 70.925781 80.164062 70.933594 80.148438 70.941406 80.132812 C 70.824219 80.28125 70.84375 80.253906 71.003906 80.054688 C 70.980469 80.085938 70.957031 80.113281 70.933594 80.144531 C 70.832031 80.21875 70.824219 80.226562 70.902344 80.175781 C 70.902344 80.1875 70.703125 80.246094 70.890625 80.191406 C 70.90625 80.183594 71.144531 80.148438 70.984375 80.164062 C 71.40625 80.121094 71.828125 80.203125 72.238281 80.308594 C 74.265625 80.820312 76.117188 82.085938 77.640625 83.488281 C 79.488281 85.195312 80.964844 87.273438 82.050781 89.546875 C 82.578125 90.65625 83 91.824219 83.300781 93.015625 C 83.523438 93.902344 83.71875 94.820312 83.675781 95.738281 C 83.621094 96.816406 85.300781 96.8125 85.347656 95.734375 Z M 85.347656 95.734375 " fill-opacity="1" fill-rule="nonzero"/><path fill="#c62047" d="M 26.019531 100.660156 C 25.976562 99.632812 26.347656 97.335938 27.347656 94.867188 C 28.328125 92.378906 29.933594 89.722656 31.929688 87.578125 C 33.90625 85.417969 36.273438 83.777344 38.34375 82.921875 C 40.398438 82.054688 42.15625 81.980469 42.488281 82.5625 C 43.492188 83.738281 40.515625 87.5 39.238281 91.757812 C 37.648438 95.953125 37.757812 100.640625 37.742188 102.109375 C 37.578125 105.003906 35.6875 107.816406 32.542969 108.269531 C 29.425781 108.746094 25.820312 105.253906 26.019531 100.660156 Z M 26.019531 100.660156 " fill-opacity="1" fill-rule="nonzero"/><path fill="#ed2b50" d="M 28.515625 97.730469 C 28.480469 96.898438 28.78125 95.035156 29.59375 93.03125 C 30.386719 91.015625 31.691406 88.859375 33.308594 87.121094 C 34.914062 85.371094 36.832031 84.035156 38.511719 83.34375 C 40.175781 82.640625 41.605469 82.578125 41.875 83.050781 C 42.6875 84.007812 40.273438 87.054688 39.234375 90.511719 C 37.945312 93.910156 38.03125 97.714844 38.023438 98.90625 C 37.890625 101.253906 36.355469 103.535156 33.804688 103.902344 C 31.277344 104.285156 28.355469 101.453125 28.515625 97.730469 Z M 28.515625 97.730469 " fill-opacity="1" fill-rule="nonzero"/><path fill="#1d1d1b" d="M 26.859375 100.660156 C 26.828125 99.773438 26.996094 98.945312 27.203125 98.074219 C 27.507812 96.796875 27.929688 95.546875 28.46875 94.351562 C 29.515625 92.023438 30.9375 89.871094 32.679688 88.007812 C 34.332031 86.242188 36.320312 84.695312 38.554688 83.742188 C 39.117188 83.503906 39.707031 83.300781 40.304688 83.164062 C 40.71875 83.070312 41.300781 82.992188 41.636719 83.035156 C 41.589844 83.03125 41.765625 83.066406 41.800781 83.070312 C 41.839844 83.078125 41.871094 83.097656 41.90625 83.105469 C 41.765625 83.078125 41.828125 83.0625 41.875 83.101562 C 41.757812 83.003906 41.859375 83.125 41.765625 82.988281 C 41.761719 82.984375 41.976562 83.265625 41.859375 83.113281 C 41.765625 82.996094 41.863281 83.144531 41.871094 83.152344 C 41.804688 83.078125 41.824219 83.015625 41.855469 83.148438 C 41.886719 83.285156 41.875 82.996094 41.851562 83.144531 C 41.84375 83.210938 41.847656 83.289062 41.84375 83.359375 C 41.839844 83.453125 41.855469 83.304688 41.855469 83.300781 C 41.847656 83.347656 41.839844 83.390625 41.832031 83.4375 C 41.644531 84.28125 41.296875 84.964844 40.917969 85.742188 C 40.414062 86.78125 39.894531 87.8125 39.433594 88.871094 C 38.402344 91.238281 37.617188 93.726562 37.257812 96.285156 C 36.992188 98.171875 36.925781 100.054688 36.902344 101.953125 C 36.886719 103.695312 36.019531 105.550781 34.589844 106.570312 C 34.199219 106.847656 33.769531 107.078125 33.3125 107.226562 C 33.066406 107.308594 32.816406 107.375 32.5625 107.421875 C 32.523438 107.429688 32.253906 107.464844 32.363281 107.457031 C 32.246094 107.464844 32.125 107.472656 32.007812 107.476562 C 31.277344 107.484375 30.5625 107.242188 29.890625 106.828125 C 28.3125 105.863281 27.289062 104.097656 26.957031 102.269531 C 26.855469 101.738281 26.839844 101.199219 26.859375 100.660156 C 26.898438 99.574219 25.21875 99.578125 25.179688 100.660156 C 25.097656 103.042969 25.949219 105.445312 27.628906 107.152344 C 29.113281 108.660156 31.152344 109.476562 33.246094 108.996094 C 35.574219 108.460938 37.324219 106.632812 38.125 104.429688 C 38.78125 102.621094 38.546875 100.648438 38.675781 98.757812 C 38.863281 96.042969 39.476562 93.453125 40.414062 90.898438 C 40.859375 89.683594 41.425781 88.519531 41.996094 87.359375 C 42.464844 86.398438 42.972656 85.433594 43.308594 84.414062 C 43.542969 83.699219 43.683594 82.84375 43.246094 82.175781 C 43.25 82.179688 43.035156 81.898438 43.152344 82.050781 C 43.269531 82.203125 43.054688 81.921875 43.058594 81.925781 C 42.972656 81.832031 42.882812 81.75 42.773438 81.683594 C 42.605469 81.570312 42.410156 81.492188 42.214844 81.441406 C 41.652344 81.292969 41.0625 81.34375 40.492188 81.425781 C 37.878906 81.804688 35.441406 83.34375 33.4375 84.992188 C 31.226562 86.820312 29.382812 89.109375 27.976562 91.609375 C 26.640625 93.992188 25.625 96.636719 25.269531 99.355469 C 25.210938 99.789062 25.164062 100.226562 25.179688 100.664062 C 25.214844 101.742188 26.890625 101.746094 26.859375 100.660156 Z M 26.859375 100.660156 " fill-opacity="1" fill-rule="nonzero"/><path fill="#000000" d="M 69.859375 67.171875 C 69.859375 67.59375 69.777344 68.003906 69.617188 68.394531 C 69.457031 68.785156 69.226562 69.132812 68.925781 69.433594 C 68.628906 69.730469 68.28125 69.964844 67.890625 70.125 C 67.5 70.289062 67.09375 70.367188 66.671875 70.367188 C 66.25 70.367188 65.84375 70.289062 65.453125 70.125 C 65.0625 69.964844 64.714844 69.730469 64.417969 69.433594 C 64.117188 69.132812 63.886719 68.785156 63.726562 68.394531 C 63.5625 68.003906 63.484375 67.59375 63.484375 67.171875 C 63.484375 66.746094 63.5625 66.339844 63.726562 65.949219 C 63.886719 65.554688 64.117188 65.210938 64.417969 64.910156 C 64.714844 64.609375 65.0625 64.378906 65.453125 64.21875 C 65.84375 64.054688 66.25 63.972656 66.671875 63.972656 C 67.09375 63.972656 67.5 64.054688 67.890625 64.21875 C 68.28125 64.378906 68.628906 64.609375 68.925781 64.910156 C 69.226562 65.210938 69.457031 65.554688 69.617188 65.949219 C 69.777344 66.339844 69.859375 66.746094 69.859375 67.171875 Z M 69.859375 67.171875 " fill-opacity="1" fill-rule="nonzero"/><path fill="#000000" d="M 29.800781 66.664062 C 29.800781 68.671875 31.375 70.632812 30.566406 70.632812 C 29.761719 70.632812 28.457031 69 28.292969 67 C 28.105469 64.640625 28.964844 62.691406 29.777344 62.691406 C 30.582031 62.691406 29.800781 64.652344 29.800781 66.664062 Z M 29.800781 66.664062 " fill-opacity="1" fill-rule="nonzero"/><path fill="#000000" d="M 31.257812 59.976562 C 31.257812 60.390625 31.003906 60.855469 30.589844 60.855469 C 30.175781 60.855469 30.054688 60.390625 30.054688 59.976562 C 30.054688 59.566406 30.386719 59.230469 30.796875 59.230469 C 31.210938 59.230469 31.257812 59.566406 31.257812 59.976562 Z M 31.257812 59.976562 " fill-opacity="1" fill-rule="nonzero"/><path fill="#000000" d="M 77.710938 63.929688 C 78.089844 65.4375 77.277344 67.210938 77.882812 67.058594 C 78.492188 66.90625 79.160156 65.433594 78.90625 63.898438 C 78.605469 62.089844 77.589844 60.789062 76.980469 60.945312 C 76.375 61.097656 77.332031 62.425781 77.710938 63.929688 Z M 77.710938 63.929688 " fill-opacity="1" fill-rule="nonzero"/><path fill="#000000" d="M 77.40625 68.480469 C 77.40625 68.800781 77.605469 69.160156 77.921875 69.160156 C 78.238281 69.160156 78.335938 68.800781 78.335938 68.480469 C 78.335938 68.160156 78.078125 67.902344 77.761719 67.902344 C 77.445312 67.902344 77.40625 68.160156 77.40625 68.480469 Z M 77.40625 68.480469 " fill-opacity="1" fill-rule="nonzero"/><path fill="#ffffff" d="M 23.886719 20.390625 C 24.503906 22.089844 26.4375 23.261719 25.753906 23.511719 C 25.066406 23.761719 23.464844 22.78125 22.71875 21.140625 C 21.832031 19.203125 21.964844 17.289062 22.648438 17.042969 C 23.332031 16.792969 23.273438 18.691406 23.886719 20.390625 Z M 23.886719 20.390625 " fill-opacity="1" fill-rule="nonzero"/><path fill="#ffffff" d="M 29.972656 104.449219 C 30.648438 105.402344 32.058594 105.804688 31.671875 106.078125 C 31.289062 106.351562 30.121094 106.015625 29.371094 105.121094 C 28.484375 104.066406 28.238281 102.84375 28.625 102.574219 C 29.007812 102.296875 29.296875 103.496094 29.972656 104.449219 Z M 29.972656 104.449219 " fill-opacity="1" fill-rule="nonzero"/><path fill="#ffffff" d="M 81.070312 98.796875 C 81.640625 98.253906 81.777344 97.273438 81.996094 97.507812 C 82.210938 97.738281 82.097656 98.550781 81.574219 99.140625 C 80.953125 99.832031 80.164062 100.109375 79.945312 99.878906 C 79.726562 99.644531 80.496094 99.339844 81.070312 98.796875 Z M 81.070312 98.796875 " fill-opacity="1" fill-rule="nonzero"/><path fill="#ffffff" d="M 70.914062 10.632812 C 69.941406 9.496094 68.097656 9.15625 68.554688 8.761719 C 69.011719 8.367188 70.542969 8.65625 71.601562 9.707031 C 72.855469 10.949219 73.3125 12.472656 72.855469 12.867188 C 72.398438 13.261719 71.886719 11.769531 70.914062 10.632812 Z M 70.914062 10.632812 " fill-opacity="1" fill-rule="nonzero"/><path fill="#ffffff" d="M 90.796875 36.359375 C 90.976562 35.140625 90.191406 33.808594 90.683594 33.878906 C 91.175781 33.953125 91.820312 35.058594 91.742188 36.289062 C 91.652344 37.734375 90.957031 38.839844 90.464844 38.769531 C 89.976562 38.699219 90.621094 37.574219 90.796875 36.359375 Z M 90.796875 36.359375 " fill-opacity="1" fill-rule="nonzero"/><path fill="#ffffff" d="M 22.242188 14.464844 C 22.242188 14.886719 22.507812 15.367188 22.925781 15.367188 C 23.347656 15.367188 23.476562 14.886719 23.476562 14.464844 C 23.476562 14.039062 23.136719 13.699219 22.714844 13.699219 C 22.292969 13.699219 22.242188 14.039062 22.242188 14.464844 Z M 22.242188 14.464844 " fill-opacity="1" fill-rule="nonzero"/><path fill="#ffffff" d="M 66.847656 8.167969 C 67.039062 8.367188 67.378906 8.472656 67.578125 8.28125 C 67.777344 8.089844 67.621094 7.808594 67.433594 7.605469 C 67.242188 7.40625 66.925781 7.398438 66.726562 7.589844 C 66.527344 7.785156 66.65625 7.96875 66.847656 8.167969 Z M 66.847656 8.167969 " fill-opacity="1" fill-rule="nonzero"/><path fill="#ffffff" d="M 90.042969 32.316406 C 90.042969 32.53125 90.179688 32.777344 90.398438 32.777344 C 90.613281 32.777344 90.679688 32.53125 90.679688 32.316406 C 90.679688 32.101562 90.503906 31.925781 90.289062 31.925781 C 90.070312 31.921875 90.042969 32.097656 90.042969 32.316406 Z M 90.042969 32.316406 " fill-opacity="1" fill-rule="nonzero"/><path fill="#ffffff" d="M 27.925781 101.011719 C 27.925781 101.246094 28.070312 101.511719 28.304688 101.511719 C 28.535156 101.511719 28.609375 101.246094 28.609375 101.011719 C 28.609375 100.777344 28.421875 100.585938 28.183594 100.585938 C 27.949219 100.585938 27.925781 100.773438 27.925781 101.011719 Z M 27.925781 101.011719 " fill-opacity="1" fill-rule="nonzero"/><path fill="#ffffff" d="M 82.195312 96.308594 C 82.195312 96.429688 82.269531 96.566406 82.394531 96.566406 C 82.515625 96.566406 82.554688 96.429688 82.554688 96.308594 C 82.554688 96.183594 82.453125 96.085938 82.332031 96.085938 C 82.207031 96.085938 82.195312 96.183594 82.195312 96.308594 Z M 82.195312 96.308594 " fill-opacity="1" fill-rule="nonzero"/></svg>